<svg version="1.1" viewBox="0.0 0.0 960.0 540.0" fill="none" stroke="none" stroke-linecap="square" stroke-miterlimit="10" xmlns:xlink="http://www.w3.org/1999/xlink" xmlns="http://www.w3.org/2000/svg"><clipPath id="g2703743a41a_0_0.0"><path d="m0 0l960.0 0l0 540.0l-960.0 0l0 -540.0z" clip-rule="nonzero"/></clipPath><g clip-path="url(#g2703743a41a_0_0.0)"><path fill="#ffffff" d="m0 0l960.0 0l0 540.0l-960.0 0z" fill-rule="evenodd"/><path fill="#eeeeee" d="m569.2008 105.81102l345.29132 0l0 328.37793l-345.29132 0z" fill-rule="evenodd"/><path stroke="#4f4f4f" stroke-width="1.0" stroke-linejoin="round" stroke-linecap="butt" d="m569.2008 105.81102l345.29132 0l0 328.37793l-345.29132 0z" fill-rule="evenodd"/><path fill="#eeeeee" d="m45.507874 105.81102l345.29135 0l0 328.37793l-345.29135 0z" fill-rule="evenodd"/><path stroke="#4f4f4f" stroke-width="1.0" stroke-linejoin="round" stroke-linecap="butt" d="m45.507874 105.81102l345.29135 0l0 328.37793l-345.29135 0z" fill-rule="evenodd"/><path fill="#ffa8a1" d="m137.76057 172.99495l0 0c0.06088257 -6.4621735 5.1373444 -11.651428 11.338593 -11.590546l0 0c2.9779358 0.02923584 5.822296 1.2900238 7.9073486 3.5050201c2.0850525 2.2149963 3.2399902 5.202759 3.2107544 8.306l0 0c-0.06088257 6.462158 -5.137329 11.651428 -11.338577 11.590546l0 0c-6.201248 -0.06088257 -11.179001 -5.3488617 -11.118118 -11.81102z" fill-rule="evenodd"/><path fill="#000000" fill-opacity="0.0" d="m100.02756 128.99213l122.99213 0l0 35.55905l-122.99213 0z" fill-rule="evenodd"/><path fill="#000000" d="m110.74631 146.60463l4.078125 1.640625l0 1.28125l-5.328125 -2.46875l0 -0.953125l5.328125 -2.453125l0 1.265625l-4.078125 1.6875zm7.399704 0.484375l0 3.703125l-1.25 0l0 -9.46875l3.5 0q1.5625 0 2.4375 0.796875q0.875 0.78125 0.875 2.09375q0 1.375 -0.859375 2.125q-0.859375 0.75 -2.46875 0.75l-2.234375 0zm0 -1.03125l2.25 0q1.0 0 1.53125 -0.46875q0.546875 -0.46875 0.546875 -1.359375q0 -0.84375 -0.546875 -1.34375q-0.53125 -0.515625 -1.453125 -0.546875l-2.328125 0l0 3.71875zm10.814423 4.734375l-1.21875 0l0 -8.03125l-2.421875 0.90625l0 -1.09375l3.453125 -1.296875l0.1875 0l0 9.515625zm3.6090546 1.890625l-0.6875 -0.46875q0.609375 -0.859375 0.640625 -1.765625l0 -1.078125l1.171875 0l0 0.9375q0 0.65625 -0.328125 1.3125q-0.3125 0.65625 -0.796875 1.0625zm7.3844147 -5.59375l0 3.703125l-1.25 0l0 -9.46875l3.5 0q1.5625 0 2.4375 0.796875q0.875 0.78125 0.875 2.09375q0 1.375 -0.859375 2.125q-0.859375 0.75 -2.46875 0.75l-2.234375 0zm0 -1.03125l2.25 0q1.0 0 1.53125 -0.46875q0.546875 -0.46875 0.546875 -1.359375q0 -0.84375 -0.546875 -1.34375q-0.53125 -0.515625 -1.453125 -0.546875l-2.328125 0l0 3.71875zm13.064423 4.734375l-6.21875 0l0 -0.859375l3.28125 -3.65625q0.734375 -0.828125 1.0 -1.34375q0.28125 -0.515625 0.28125 -1.0625q0 -0.75 -0.453125 -1.21875q-0.4375 -0.46875 -1.1875 -0.46875q-0.890625 0 -1.390625 0.515625q-0.5 0.5 -0.5 1.40625l-1.203125 0q0 -1.296875 0.84375 -2.109375q0.84375 -0.8125 2.25 -0.8125q1.328125 0 2.09375 0.703125q0.765625 0.6875 0.765625 1.84375q0 1.390625 -1.78125 3.328125l-2.546875 2.75l4.765625 0l0 0.984375zm1.3590546 1.890625l-0.6875 -0.46875q0.609375 -0.859375 0.640625 -1.765625l0 -1.078125l1.171875 0l0 0.9375q0 0.65625 -0.328125 1.3125q-0.3125 0.65625 -0.796875 1.0625zm6.0094147 -2.515625q0 -0.3125 0.1875 -0.515625q0.1875 -0.21875 0.546875 -0.21875q0.375 0 0.5625 0.21875q0.203125 0.203125 0.203125 0.515625q0 0.296875 -0.203125 0.5q-0.1875 0.203125 -0.5625 0.203125q-0.359375 0 -0.546875 -0.203125q-0.1875 -0.203125 -0.1875 -0.5zm2.84375 0q0 -0.3125 0.1875 -0.515625q0.1875 -0.21875 0.546875 -0.21875q0.375 0 0.5625 0.21875q0.203125 0.203125 0.203125 0.515625q0 0.296875 -0.203125 0.5q-0.1875 0.203125 -0.5625 0.203125q-0.359375 0 -0.546875 -0.203125q-0.1875 -0.203125 -0.1875 -0.5zm2.703125 0q0 -0.3125 0.1875 -0.515625q0.1875 -0.21875 0.546875 -0.21875q0.375 0 0.5625 0.21875q0.203125 0.203125 0.203125 0.515625q0 0.296875 -0.203125 0.5q-0.1875 0.203125 -0.5625 0.203125q-0.359375 0 -0.546875 -0.203125q-0.1875 -0.203125 -0.1875 -0.5zm3.2751617 2.515625l-0.6875 -0.46875q0.609375 -0.859375 0.640625 -1.765625l0 -1.078125l1.171875 0l0 0.9375q0 0.65625 -0.328125 1.3125q-0.3125 0.65625 -0.796875 1.0625zm7.3844147 -5.59375l0 3.703125l-1.25 0l0 -9.46875l3.5 0q1.5625 0 2.4375 0.796875q0.875 0.78125 0.875 2.09375q0 1.375 -0.859375 2.125q-0.859375 0.75 -2.46875 0.75l-2.234375 0zm0 -1.03125l2.25 0q1.0 0 1.53125 -0.46875q0.546875 -0.46875 0.546875 -1.359375q0 -0.84375 -0.546875 -1.34375q-0.53125 -0.515625 -1.453125 -0.546875l-2.328125 0l0 3.71875zm8.111298 -2.3125l0.046875 0.890625q0.796875 -1.015625 2.109375 -1.015625q2.234375 0 2.25 2.515625l0 4.65625l-1.203125 0l0 -4.65625q-0.015625 -0.765625 -0.359375 -1.125q-0.328125 -0.375 -1.0625 -0.375q-0.578125 0 -1.03125 0.3125q-0.4375 0.3125 -0.6875 0.828125l0 5.015625l-1.203125 0l0 -7.046875l1.140625 0zm10.478897 2.8125l-4.296875 -1.6875l0 -1.234375l5.5625 2.46875l0 0.953125l-5.5625 2.453125l0 -1.25l4.296875 -1.703125z" fill-rule="nonzero"/><path fill="#6aa84f" d="m133.03616 368.93982l0 0c0.06088257 -6.462158 5.1373444 -11.651428 11.338593 -11.590546l0 0c2.9779358 0.02923584 5.822296 1.2900391 7.9073486 3.5050354c2.0850525 2.2149963 3.2399902 5.202759 3.2107544 8.306l0 0c-0.06088257 6.462158 -5.137329 11.651428 -11.338577 11.590546l0 0c-6.201248 -0.06088257 -11.178986 -5.3488464 -11.118118 -11.811035z" fill-rule="evenodd"/><path fill="#e06666" d="m259.70285 269.88995l0 0c0.06088257 -6.462158 5.137329 -11.651428 11.338562 -11.590546l0 0c2.9779358 0.02923584 5.822296 1.2900391 7.9073486 3.5050354c2.0850525 2.2149963 3.2399902 5.202759 3.2107544 8.306l0 0c-0.06085205 6.462158 -5.137329 11.651428 -11.338562 11.590546l0 0c-6.2012634 -0.06088257 -11.178986 -5.3488464 -11.118103 -11.811035z" fill-rule="evenodd"/><path fill="#eeeeee" d="m427.49097 239.79588l112.020874 0c2.4414062E-4 0 4.8828125E-4 1.0681152E-4 6.713867E-4 2.89917E-4c1.8310547E-4 1.8310547E-4 3.0517578E-4 4.4250488E-4 3.0517578E-4 7.019043E-4l-9.765625E-4 35.011993c0 3.8675232 -3.135254 7.0027466 -7.0028076 7.0027466l-112.02084 0l0 0c-5.493164E-4 0 -0.0010070801 -4.272461E-4 -0.0010070801 -9.765625E-4l0.0010070801 -35.011993l0 0c0 -3.8675232 3.135254 -7.002762 7.002777 -7.002762z" fill-rule="evenodd"/><path stroke="#4f4f4f" stroke-width="1.0" stroke-linejoin="round" stroke-linecap="butt" d="m427.49097 239.79588l112.020874 0c2.4414062E-4 0 4.8828125E-4 1.0681152E-4 6.713867E-4 2.89917E-4c1.8310547E-4 1.8310547E-4 3.0517578E-4 4.4250488E-4 3.0517578E-4 7.019043E-4l-9.765625E-4 35.011993c0 3.8675232 -3.135254 7.0027466 -7.0028076 7.0027466l-112.02084 0l0 0c-5.493164E-4 0 -0.0010070801 -4.272461E-4 -0.0010070801 -9.765625E-4l0.0010070801 -35.011993l0 0c0 -3.8675232 3.135254 -7.002762 7.002777 -7.002762z" fill-rule="evenodd"/><path fill="#000000" d="m459.5222 256.88376l0 -10.484375l1.4375 0l5.5 8.234375l0 -8.234375l1.328125 0l0 10.484375l-1.421875 0l-5.5 -8.25l0 8.25l-1.34375 0zm15.646759 -2.453125l1.328125 0.171875q-0.3125 1.171875 -1.171875 1.8125q-0.84375 0.640625 -2.171875 0.640625q-1.671875 0 -2.65625 -1.015625q-0.96875 -1.03125 -0.96875 -2.890625q0 -1.921875 0.984375 -2.96875q1.0 -1.0625 2.578125 -1.0625q1.515625 0 2.484375 1.03125q0.96875 1.03125 0.96875 2.921875q0 0.109375 -0.015625 0.34375l-5.65625 0q0.0625 1.25 0.703125 1.921875q0.640625 0.65625 1.59375 0.65625q0.703125 0 1.203125 -0.359375q0.5 -0.375 0.796875 -1.203125zm-4.234375 -2.078125l4.25 0q-0.09375 -0.953125 -0.484375 -1.4375q-0.625 -0.75 -1.609375 -0.75q-0.875 0 -1.484375 0.59375q-0.609375 0.59375 -0.671875 1.59375zm12.166748 4.53125l0 -1.109375q-0.890625 1.28125 -2.421875 1.28125q-0.671875 0 -1.25 -0.25q-0.578125 -0.265625 -0.875 -0.65625q-0.28125 -0.390625 -0.390625 -0.953125q-0.078125 -0.375 -0.078125 -1.203125l0 -4.703125l1.28125 0l0 4.203125q0 1.015625 0.078125 1.359375q0.125 0.515625 0.515625 0.8125q0.40625 0.28125 0.984375 0.28125q0.578125 0 1.078125 -0.296875q0.515625 -0.296875 0.71875 -0.8125q0.21875 -0.515625 0.21875 -1.484375l0 -4.0625l1.28125 0l0 7.59375l-1.140625 0zm3.1510925 0l0 -7.59375l1.15625 0l0 1.140625q0.453125 -0.796875 0.828125 -1.046875q0.375 -0.265625 0.8125 -0.265625q0.65625 0 1.328125 0.40625l-0.4375 1.203125q-0.46875 -0.28125 -0.953125 -0.28125q-0.421875 0 -0.765625 0.25q-0.328125 0.25 -0.46875 0.703125q-0.21875 0.6875 -0.21875 1.5l0 3.984375l-1.28125 0zm9.849396 -0.9375q-0.71875 0.609375 -1.375 0.859375q-0.65625 0.25 -1.421875 0.25q-1.25 0 -1.921875 -0.609375q-0.671875 -0.609375 -0.671875 -1.5625q0 -0.5625 0.25 -1.015625q0.25 -0.46875 0.65625 -0.75q0.421875 -0.28125 0.9375 -0.421875q0.375 -0.09375 1.140625 -0.1875q1.5625 -0.1875 2.296875 -0.453125q0.015625 -0.265625 0.015625 -0.328125q0 -0.796875 -0.375 -1.109375q-0.484375 -0.4375 -1.453125 -0.4375q-0.921875 0 -1.359375 0.328125q-0.421875 0.3125 -0.625 1.109375l-1.265625 -0.171875q0.171875 -0.796875 0.5625 -1.296875q0.390625 -0.5 1.140625 -0.765625q0.75 -0.265625 1.71875 -0.265625q0.984375 0 1.59375 0.234375q0.609375 0.21875 0.890625 0.5625q0.28125 0.34375 0.40625 0.875q0.0625 0.328125 0.0625 1.1875l0 1.71875q0 1.796875 0.078125 2.28125q0.078125 0.46875 0.328125 0.90625l-1.34375 0q-0.203125 -0.40625 -0.265625 -0.9375zm-0.109375 -2.875q-0.703125 0.28125 -2.09375 0.484375q-0.796875 0.109375 -1.125 0.265625q-0.328125 0.140625 -0.515625 0.421875q-0.171875 0.265625 -0.171875 0.59375q0 0.515625 0.390625 0.859375q0.390625 0.34375 1.140625 0.34375q0.734375 0 1.3125 -0.3125q0.59375 -0.328125 0.859375 -0.890625q0.203125 -0.4375 0.203125 -1.296875l0 -0.46875zm3.276123 3.8125l0 -10.484375l1.28125 0l0 10.484375l-1.28125 0z" fill-rule="nonzero"/><path fill="#000000" d="m450.56955 274.88376l0 -10.484375l1.4375 0l5.5 8.234375l0 -8.234375l1.328125 0l0 10.484375l-1.421875 0l-5.5 -8.25l0 8.25l-1.34375 0zm15.64679 -2.453125l1.328125 0.171875q-0.3125 1.171875 -1.171875 1.8125q-0.84375 0.640625 -2.171875 0.640625q-1.671875 0 -2.65625 -1.015625q-0.96875 -1.03125 -0.96875 -2.890625q0 -1.921875 0.984375 -2.96875q1.0 -1.0625 2.578125 -1.0625q1.515625 0 2.484375 1.03125q0.96875 1.03125 0.96875 2.921875q0 0.109375 -0.015625 0.34375l-5.65625 0q0.0625 1.25 0.703125 1.921875q0.640625 0.65625 1.59375 0.65625q0.703125 0 1.203125 -0.359375q0.5 -0.375 0.796875 -1.203125zm-4.234375 -2.078125l4.25 0q-0.09375 -0.953125 -0.484375 -1.4375q-0.625 -0.75 -1.609375 -0.75q-0.875 0 -1.484375 0.59375q-0.609375 0.59375 -0.671875 1.59375zm9.994843 3.375l0.1875 1.140625q-0.546875 0.109375 -0.984375 0.109375q-0.6875 0 -1.078125 -0.21875q-0.390625 -0.21875 -0.546875 -0.578125q-0.15625 -0.359375 -0.15625 -1.515625l0 -4.375l-0.953125 0l0 -1.0l0.953125 0l0 -1.890625l1.28125 -0.765625l0 2.65625l1.296875 0l0 1.0l-1.296875 0l0 4.4375q0 0.546875 0.0625 0.71875q0.078125 0.15625 0.21875 0.25q0.15625 0.078125 0.453125 0.078125q0.203125 0 0.5625 -0.046875zm2.665741 1.15625l-2.328125 -7.59375l1.328125 0l1.203125 4.375l0.453125 1.640625q0.03125 -0.125 0.390625 -1.578125l1.21875 -4.4375l1.328125 0l1.125 4.40625l0.390625 1.453125l0.4375 -1.46875l1.296875 -4.390625l1.25 0l-2.375 7.59375l-1.34375 0l-1.203125 -4.546875l-0.296875 -1.296875l-1.53125 5.84375l-1.34375 0zm8.693634 -3.796875q0 -2.109375 1.171875 -3.125q0.984375 -0.84375 2.390625 -0.84375q1.578125 0 2.5625 1.03125q1.0 1.015625 1.0 2.828125q0 1.46875 -0.4375 2.3125q-0.4375 0.828125 -1.28125 1.296875q-0.84375 0.46875 -1.84375 0.46875q-1.59375 0 -2.578125 -1.015625q-0.984375 -1.03125 -0.984375 -2.953125zm1.328125 0q0 1.453125 0.625 2.1875q0.640625 0.71875 1.609375 0.71875q0.96875 0 1.59375 -0.71875q0.640625 -0.734375 0.640625 -2.234375q0 -1.40625 -0.640625 -2.125q-0.640625 -0.734375 -1.59375 -0.734375q-0.96875 0 -1.609375 0.71875q-0.625 0.71875 -0.625 2.1875zm7.291748 3.796875l0 -7.59375l1.15625 0l0 1.140625q0.453125 -0.796875 0.828125 -1.046875q0.375 -0.265625 0.8125 -0.265625q0.65625 0 1.328125 0.40625l-0.4375 1.203125q-0.46875 -0.28125 -0.953125 -0.28125q-0.421875 0 -0.765625 0.25q-0.328125 0.25 -0.46875 0.703125q-0.21875 0.6875 -0.21875 1.5l0 3.984375l-1.28125 0zm4.8962708 0l0 -10.484375l1.296875 0l0 5.96875l3.046875 -3.078125l1.671875 0l-2.90625 2.8125l3.1875 4.78125l-1.578125 0l-2.515625 -3.890625l-0.90625 0.875l0 3.015625l-1.296875 0zm6.8125 -2.265625l1.265625 -0.203125q0.109375 0.765625 0.59375 1.171875q0.5 0.40625 1.375 0.40625q0.890625 0 1.3125 -0.359375q0.4375 -0.359375 0.4375 -0.84375q0 -0.4375 -0.375 -0.6875q-0.265625 -0.171875 -1.3125 -0.4375q-1.421875 -0.359375 -1.96875 -0.609375q-0.546875 -0.265625 -0.828125 -0.734375q-0.28125 -0.46875 -0.28125 -1.015625q0 -0.515625 0.21875 -0.9375q0.234375 -0.4375 0.640625 -0.734375q0.296875 -0.21875 0.8125 -0.359375q0.53125 -0.15625 1.125 -0.15625q0.890625 0 1.5625 0.265625q0.671875 0.25 1.0 0.6875q0.328125 0.4375 0.4375 1.171875l-1.25 0.171875q-0.09375 -0.578125 -0.5 -0.90625q-0.40625 -0.34375 -1.15625 -0.34375q-0.890625 0 -1.28125 0.296875q-0.375 0.296875 -0.375 0.6875q0 0.25 0.15625 0.453125q0.15625 0.203125 0.5 0.34375q0.1875 0.078125 1.140625 0.328125q1.359375 0.359375 1.890625 0.59375q0.546875 0.234375 0.859375 0.6875q0.3125 0.4375 0.3125 1.09375q0 0.640625 -0.375 1.21875q-0.375 0.5625 -1.09375 0.875q-0.703125 0.3125 -1.59375 0.3125q-1.484375 0 -2.265625 -0.609375q-0.765625 -0.625 -0.984375 -1.828125z" fill-rule="nonzero"/><path fill="#ffa8a1" d="m686.3629 172.99364l0 0c0.060913086 -6.4621735 5.13739 -11.651428 11.338623 -11.590546l0 0c2.9779053 0.02923584 5.8222656 1.2900238 7.9073486 3.5050201c2.085022 2.2149963 3.2399902 5.202759 3.2107544 8.306l0 0c-0.060913086 6.462158 -5.137329 11.651428 -11.338562 11.590546l0 0c-6.201294 -0.06088257 -11.179016 -5.3488617 -11.118164 -11.81102z" fill-rule="evenodd"/><path fill="#000000" fill-opacity="0.0" d="m649.1273 117.75328l122.99213 0l0 35.55905l-122.99213 0z" fill-rule="evenodd"/><path fill="#000000" d="m659.84607 135.36578l4.078125 1.640625l0 1.28125l-5.328125 -2.46875l0 -0.953125l5.328125 -2.453125l0 1.265625l-4.078125 1.6875zm7.399658 0.484375l0 3.703125l-1.25 0l0 -9.46875l3.5 0q1.5625 0 2.4375 0.796875q0.875 0.78125 0.875 2.09375q0 1.375 -0.859375 2.125q-0.859375 0.75 -2.46875 0.75l-2.234375 0zm0 -1.03125l2.25 0q1.0 0 1.53125 -0.46875q0.546875 -0.46875 0.546875 -1.359375q0 -0.84375 -0.546875 -1.34375q-0.53125 -0.515625 -1.453125 -0.546875l-2.328125 0l0 3.71875zm10.814453 4.734375l-1.21875 0l0 -8.03125l-2.421875 0.90625l0 -1.09375l3.453125 -1.296875l0.1875 0l0 9.515625zm3.7340698 -6.8125l-0.6875 -0.46875q0.609375 -0.84375 0.625 -1.78125l0 -0.9375l1.1875 0l0 0.84375q0 0.65625 -0.328125 1.3125q-0.3125 0.640625 -0.796875 1.03125zm2.5366821 8.703125l-0.6875 -0.46875q0.609375 -0.859375 0.640625 -1.765625l0 -1.078125l1.171875 0l0 0.9375q0 0.65625 -0.328125 1.3125q-0.3125 0.65625 -0.796875 1.0625zm7.3844604 -5.59375l0 3.703125l-1.25 0l0 -9.46875l3.5 0q1.5625 0 2.4375 0.796875q0.875 0.78125 0.875 2.09375q0 1.375 -0.859375 2.125q-0.859375 0.75 -2.46875 0.75l-2.234375 0zm0 -1.03125l2.25 0q1.0 0 1.53125 -0.46875q0.546875 -0.46875 0.546875 -1.359375q0 -0.84375 -0.546875 -1.34375q-0.53125 -0.515625 -1.453125 -0.546875l-2.328125 0l0 3.71875zm13.064392 4.734375l-6.21875 0l0 -0.859375l3.28125 -3.65625q0.734375 -0.828125 1.0 -1.34375q0.28125 -0.515625 0.28125 -1.0625q0 -0.75 -0.453125 -1.21875q-0.4375 -0.46875 -1.1875 -0.46875q-0.890625 0 -1.390625 0.515625q-0.5 0.5 -0.5 1.40625l-1.203125 0q0 -1.296875 0.84375 -2.109375q0.84375 -0.8125 2.25 -0.8125q1.328125 0 2.09375 0.703125q0.765625 0.6875 0.765625 1.84375q0 1.390625 -1.78125 3.328125l-2.546875 2.75l4.765625 0l0 0.984375zm1.4840698 -6.8125l-0.6875 -0.46875q0.609375 -0.84375 0.625 -1.78125l0 -0.9375l1.1875 0l0 0.84375q0 0.65625 -0.328125 1.3125q-0.3125 0.640625 -0.796875 1.03125zm2.5367432 8.703125l-0.6875 -0.46875q0.609375 -0.859375 0.640625 -1.765625l0 -1.078125l1.171875 0l0 0.9375q0 0.65625 -0.328125 1.3125q-0.3125 0.65625 -0.796875 1.0625zm6.0093994 -2.515625q0 -0.3125 0.1875 -0.515625q0.1875 -0.21875 0.546875 -0.21875q0.375 0 0.5625 0.21875q0.203125 0.203125 0.203125 0.515625q0 0.296875 -0.203125 0.5q-0.1875 0.203125 -0.5625 0.203125q-0.359375 0 -0.546875 -0.203125q-0.1875 -0.203125 -0.1875 -0.5zm2.84375 0q0 -0.3125 0.1875 -0.515625q0.1875 -0.21875 0.546875 -0.21875q0.375 0 0.5625 0.21875q0.203125 0.203125 0.203125 0.515625q0 0.296875 -0.203125 0.5q-0.1875 0.203125 -0.5625 0.203125q-0.359375 0 -0.546875 -0.203125q-0.1875 -0.203125 -0.1875 -0.5zm2.703125 0q0 -0.3125 0.1875 -0.515625q0.1875 -0.21875 0.546875 -0.21875q0.375 0 0.5625 0.21875q0.203125 0.203125 0.203125 0.515625q0 0.296875 -0.203125 0.5q-0.1875 0.203125 -0.5625 0.203125q-0.359375 0 -0.546875 -0.203125q-0.1875 -0.203125 -0.1875 -0.5zm3.2751465 2.515625l-0.6875 -0.46875q0.609375 -0.859375 0.640625 -1.765625l0 -1.078125l1.171875 0l0 0.9375q0 0.65625 -0.328125 1.3125q-0.3125 0.65625 -0.796875 1.0625zm7.3843994 -5.59375l0 3.703125l-1.25 0l0 -9.46875l3.5 0q1.5625 0 2.4375 0.796875q0.875 0.78125 0.875 2.09375q0 1.375 -0.859375 2.125q-0.859375 0.75 -2.46875 0.75l-2.234375 0zm0 -1.03125l2.25 0q1.0 0 1.53125 -0.46875q0.546875 -0.46875 0.546875 -1.359375q0 -0.84375 -0.546875 -1.34375q-0.53125 -0.515625 -1.453125 -0.546875l-2.328125 0l0 3.71875zm8.111328 -2.3125l0.03125 0.78125q0.765625 -0.90625 2.09375 -0.90625q1.46875 0 2.0 1.125q0.359375 -0.5 0.921875 -0.8125q0.5625 -0.3125 1.328125 -0.3125q2.3125 0 2.359375 2.453125l0 4.71875l-1.203125 0l0 -4.640625q0 -0.765625 -0.34375 -1.140625q-0.34375 -0.375 -1.171875 -0.375q-0.65625 0 -1.109375 0.40625q-0.4375 0.40625 -0.515625 1.078125l0 4.671875l-1.203125 0l0 -4.609375q0 -1.546875 -1.5 -1.546875q-1.1875 0 -1.625 1.015625l0 5.140625l-1.203125 0l0 -7.046875l1.140625 0zm10.113953 0.234375l-0.6875 -0.46875q0.609375 -0.84375 0.625 -1.78125l0 -0.9375l1.1875 0l0 0.84375q0 0.65625 -0.328125 1.3125q-0.3125 0.640625 -0.796875 1.03125zm6.833557 2.578125l-4.296875 -1.6875l0 -1.234375l5.5625 2.46875l0 0.953125l-5.5625 2.453125l0 -1.25l4.296875 -1.703125z" fill-rule="nonzero"/><path fill="#6aa84f" d="m631.503 405.585l0 0c-4.0007935 -5.070587 -3.2957153 -12.290436 1.5748291 -16.125977l0 0c2.3389282 -1.8418884 5.345215 -2.6410522 8.357605 -2.2216797c3.0124512 0.41937256 5.7841187 2.0229187 7.7053833 4.4579163l0 0c4.0007935 5.0705566 3.2957153 12.290405 -1.5748291 16.125977l0 0c-4.8705444 3.8355408 -12.062195 2.8343506 -16.062988 -2.2362366z" fill-rule="evenodd"/><path fill="#e06666" d="m771.33405 239.57368l0 0c0.060913086 -6.462158 5.13739 -11.651428 11.338623 -11.590546l0 0c2.9779053 0.02923584 5.8222656 1.2900391 7.9073486 3.5050354c2.085022 2.2149963 3.2399902 5.2027435 3.2107544 8.3059845l0 0c-0.060913086 6.4621735 -5.137329 11.651428 -11.338562 11.590546l0 0c-6.201294 -0.06086731 -11.179016 -5.3488464 -11.118164 -11.81102z" fill-rule="evenodd"/><path fill="#000000" fill-opacity="0.0" d="m705.453 181.45552l65.88977 58.110245" fill-rule="evenodd"/><path stroke="#4f4f4f" stroke-width="4.0" stroke-linejoin="round" stroke-linecap="butt" d="m705.453 181.45552l65.88977 58.110245" fill-rule="evenodd"/><path fill="#000000" fill-opacity="0.0" d="m782.4522 251.3847l-133.32288 140.31497" fill-rule="evenodd"/><path stroke="#4f4f4f" stroke-width="4.0" stroke-linejoin="round" stroke-linecap="butt" stroke-dasharray="4.0,12.0" d="m782.4522 251.3847l-133.32288 140.31497" fill-rule="evenodd"/><path fill="#000000" fill-opacity="0.0" d="m730.84515 189.63387l93.19684 0l0 37.165344l-93.19684 0z" fill-rule="evenodd"/><path fill="#000000" d="m742.5795 204.96385l0.0625 0.875q0.828125 -1.015625 2.234375 -1.015625q1.484375 0 2.046875 1.1875q0.8125 -1.1875 2.328125 -1.1875q1.25 0 1.859375 0.734375q0.625 0.734375 0.625 2.21875l0 4.9375l-2.078125 0l0 -4.9375q0 -0.65625 -0.265625 -0.953125q-0.25 -0.3125 -0.890625 -0.3125q-0.9375 0 -1.296875 0.890625l0.015625 5.3125l-2.078125 0l0 -4.9375q0 -0.671875 -0.265625 -0.96875q-0.265625 -0.296875 -0.890625 -0.296875q-0.890625 0 -1.28125 0.734375l0 5.46875l-2.0625 0l0 -7.75l1.9375 0zm12.938232 7.75l-2.078125 0l0 -7.75l2.078125 0l0 7.75zm-2.203125 -9.75q0 -0.46875 0.3125 -0.765625q0.3125 -0.296875 0.84375 -0.296875q0.53125 0 0.84375 0.296875q0.3125 0.296875 0.3125 0.765625q0 0.46875 -0.3125 0.78125q-0.3125 0.296875 -0.84375 0.296875q-0.515625 0 -0.84375 -0.296875q-0.3125 -0.3125 -0.3125 -0.78125zm5.8078003 2.0l0.0625 0.90625q0.828125 -1.046875 2.21875 -1.046875q1.234375 0 1.828125 0.734375q0.609375 0.71875 0.625 2.15625l0 5.0l-2.0625 0l0 -4.953125q0 -0.65625 -0.296875 -0.953125q-0.28125 -0.296875 -0.953125 -0.296875q-0.875 0 -1.3125 0.75l0 5.453125l-2.0625 0l0 -7.75l1.953125 0z" fill-rule="nonzero"/><path fill="#000000" fill-opacity="0.0" d="m706.1706 350.14304l93.19684 0l0 37.165375l-93.19684 0z" fill-rule="evenodd"/><path fill="#000000" d="m717.90497 365.47305l0.0625 0.875q0.828125 -1.015625 2.234375 -1.015625q1.484375 0 2.046875 1.1875q0.8125 -1.1875 2.328125 -1.1875q1.25 0 1.859375 0.734375q0.625 0.734375 0.625 2.21875l0 4.9375l-2.078125 0l0 -4.9375q0 -0.65625 -0.265625 -0.953125q-0.25 -0.3125 -0.890625 -0.3125q-0.9375 0 -1.296875 0.890625l0.015625 5.3125l-2.078125 0l0 -4.9375q0 -0.671875 -0.265625 -0.96875q-0.265625 -0.296875 -0.890625 -0.296875q-0.890625 0 -1.28125 0.734375l0 5.46875l-2.0625 0l0 -7.75l1.9375 0zm15.235107 7.75q-0.140625 -0.28125 -0.203125 -0.6875q-0.75 0.828125 -1.953125 0.828125q-1.140625 0 -1.890625 -0.65625q-0.75 -0.65625 -0.75 -1.65625q0 -1.234375 0.90625 -1.890625q0.921875 -0.65625 2.640625 -0.671875l0.953125 0l0 -0.4375q0 -0.53125 -0.28125 -0.859375q-0.265625 -0.328125 -0.859375 -0.328125q-0.515625 0 -0.8125 0.25q-0.296875 0.25 -0.296875 0.6875l-2.078125 0q0 -0.671875 0.40625 -1.234375q0.421875 -0.578125 1.171875 -0.90625q0.765625 -0.328125 1.71875 -0.328125q1.421875 0 2.265625 0.71875q0.84375 0.71875 0.84375 2.03125l0 3.34375q0.015625 1.109375 0.3125 1.671875l0 0.125l-2.09375 0zm-1.703125 -1.4375q0.453125 0 0.828125 -0.203125q0.390625 -0.203125 0.578125 -0.546875l0 -1.328125l-0.765625 0q-1.5625 0 -1.65625 1.0625l0 0.125q0 0.390625 0.265625 0.640625q0.265625 0.25 0.75 0.25zm8.029602 -4.0l1.296875 -2.3125l2.203125 0l-2.203125 3.796875l2.296875 3.953125l-2.21875 0l-1.375 -2.4375l-1.375 2.4375l-2.21875 0l2.296875 -3.953125l-2.203125 -3.796875l2.21875 0l1.28125 2.3125z" fill-rule="nonzero"/><path fill="#000000" fill-opacity="0.0" d="m114.59449 184.91602l68.78741 0l0 35.55905l-68.78741 0z" fill-rule="evenodd"/><path fill="#000000" d="m124.71949 206.716l0 -9.0625l2.828125 0q1.4843674 0 2.5312424 0.671875q1.0625 0.671875 1.0625 2.234375q-0.015625 1.546875 -1.140625 2.28125q-1.125 0.71875 -2.5624924 0.71875l-1.0 0l0 3.15625l-1.71875 0zm2.78125 -7.625l-1.0625 0l0 3.046875l1.09375 0q0.7656174 0 1.2499924 -0.359375q0.484375 -0.359375 0.53125 -1.109375q0 -0.890625 -0.484375 -1.234375q-0.46875 -0.34375 -1.3281174 -0.34375zm7.9963913 7.78125q-1.53125 -0.015625 -2.390625 -0.921875q-0.859375 -0.921875 -0.859375 -2.484375q0 -1.546875 0.890625 -2.46875q0.90625 -0.921875 2.46875 -0.921875q1.609375 0 2.484375 0.953125q0.890625 0.953125 0.890625 2.5q0 1.546875 -0.953125 2.4375q-0.953125 0.890625 -2.53125 0.90625zm1.703125 -3.34375q0 -0.921875 -0.40625 -1.4375q-0.40625 -0.53125 -1.15625 -0.53125q-0.75 0 -1.1875 0.46875q-0.421875 0.46875 -0.421875 1.421875q0 0.953125 0.359375 1.453125q0.375 0.5 1.140625 0.5q0.734375 0 1.203125 -0.453125q0.46875 -0.453125 0.46875 -1.421875zm6.972946 -1.53125q-0.46875 -0.21875 -0.875 -0.328125q-0.390625 -0.109375 -0.84375 -0.109375q-0.328125 0 -0.515625 0.125q-0.171875 0.125 -0.171875 0.359375q0 0.15625 0.21875 0.3125q0.21875 0.140625 0.703125 0.3125q0.8125 0.28125 1.5 0.8125q0.703125 0.53125 0.703125 1.375q0 0.953125 -0.6875 1.484375q-0.6875 0.53125 -2.0 0.53125q-0.421875 0 -1.109375 -0.15625q-0.6875 -0.15625 -1.140625 -0.5l0.53125 -1.265625q0.46875 0.21875 0.890625 0.34375q0.4375 0.109375 0.796875 0.109375q0.484375 0 0.734375 -0.140625q0.25 -0.140625 0.25 -0.34375q0 -0.265625 -0.25 -0.484375q-0.25 -0.21875 -0.796875 -0.390625q-0.78125 -0.25 -1.46875 -0.71875q-0.6875 -0.46875 -0.6875 -1.28125q0 -0.90625 0.671875 -1.4375q0.6875 -0.53125 1.859375 -0.53125q0.40625 0 1.0625 0.171875q0.65625 0.171875 1.140625 0.515625l-0.515625 1.234375zm2.8202362 -4.609375q0.421875 0 0.703125 0.28125q0.28125 0.28125 0.28125 0.6875q0 0.421875 -0.28125 0.703125q-0.28125 0.265625 -0.703125 0.265625q-0.390625 0 -0.671875 -0.265625q-0.28125 -0.28125 -0.28125 -0.703125q0 -0.40625 0.28125 -0.6875q0.28125 -0.28125 0.671875 -0.28125zm0.875 2.859375l0 6.46875l-1.734375 0l0 -6.46875l1.734375 0zm5.6776123 6.328125q-0.21875 0.1875 -0.609375 0.296875q-0.390625 0.109375 -0.703125 0.109375q-1.203125 0 -1.890625 -0.609375q-0.671875 -0.609375 -0.671875 -1.71875l0 -3.0625l-0.875 0l0 -1.328125l0.875 0l0 -1.53125l1.71875 -0.3125l0 1.84375l1.171875 0l0.53125 1.328125l-1.703125 0l0 2.75q0 0.515625 0.234375 0.84375q0.234375 0.3125 0.703125 0.3125q0.171875 0 0.34375 -0.03125q0.171875 -0.046875 0.359375 -0.140625l0.515625 1.25zm1.8174133 -9.1875q0.421875 0 0.703125 0.28125q0.28125 0.28125 0.28125 0.6875q0 0.421875 -0.28125 0.703125q-0.28125 0.265625 -0.703125 0.265625q-0.390625 0 -0.671875 -0.265625q-0.28125 -0.28125 -0.28125 -0.703125q0 -0.40625 0.28125 -0.6875q0.28125 -0.28125 0.671875 -0.28125zm0.875 2.859375l0 6.46875l-1.734375 0l0 -6.46875l1.734375 0zm3.4119873 6.46875l-2.484375 -6.21875l1.78125 -0.25l1.5 3.921875l1.40625 -3.921875l1.828125 0l-2.546875 6.46875l-1.484375 0zm8.273407 0.15625q-1.671875 0 -2.640625 -0.90625q-0.96875 -0.921875 -0.96875 -2.46875q0 -1.546875 0.875 -2.484375q0.875 -0.9375 2.375 -0.9375q1.515625 0 2.21875 1.015625q0.71875 1.0 0.71875 2.375l0 0.53125l-4.34375 0q0.109375 0.640625 0.578125 1.03125q0.46875 0.375 1.234375 0.375q0.4375 0 0.78125 -0.109375q0.359375 -0.125 0.828125 -0.34375l0.5 1.265625q-0.453125 0.34375 -1.109375 0.5q-0.640625 0.15625 -1.046875 0.15625zm0.953125 -4.03125q-0.140625 -0.65625 -0.484375 -0.96875q-0.34375 -0.3125 -0.875 -0.3125q-0.53125 0 -0.890625 0.328125q-0.359375 0.328125 -0.46875 0.953125l2.71875 0z" fill-rule="nonzero"/><path fill="#000000" fill-opacity="0.0" d="m211.41864 220.47507l119.02362 0l0 35.55905l-119.02362 0z" fill-rule="evenodd"/><path fill="#000000" d="m222.13739 238.08757l4.078125 1.640625l0 1.28125l-5.328125 -2.46875l0 -0.953125l5.328125 -2.453125l0 1.265625l-4.078125 1.6875zm11.384079 1.71875l-3.96875 0l-0.890625 2.46875l-1.28125 0l3.609375 -9.46875l1.09375 0l3.625 9.46875l-1.28125 0l-0.90625 -2.46875zm-3.59375 -1.03125l3.234375 0l-1.625 -4.4375l-1.609375 4.4375zm10.710144 3.5l-1.21875 0l0 -8.03125l-2.421875 0.90625l0 -1.09375l3.453125 -1.296875l0.1875 0l0 9.515625zm3.6090546 1.890625l-0.6875 -0.46875q0.609375 -0.859375 0.640625 -1.765625l0 -1.078125l1.171875 0l0 0.9375q0 0.65625 -0.328125 1.3125q-0.3125 0.65625 -0.796875 1.0625zm11.36879 -4.359375l-3.96875 0l-0.890625 2.46875l-1.28125 0l3.609375 -9.46875l1.09375 0l3.6249847 9.46875l-1.28125 0l-0.90623474 -2.46875zm-3.59375 -1.03125l3.234375 0l-1.625 -4.4375l-1.609375 4.4375zm12.960129 3.5l-6.21875 0l0 -0.859375l3.28125 -3.65625q0.734375 -0.828125 1.0 -1.34375q0.28125 -0.515625 0.28125 -1.0625q0 -0.75 -0.453125 -1.21875q-0.4375 -0.46875 -1.1875 -0.46875q-0.890625 0 -1.390625 0.515625q-0.5 0.5 -0.5 1.40625l-1.203125 0q0 -1.296875 0.84375 -2.109375q0.84375 -0.8125 2.25 -0.8125q1.328125 0 2.09375 0.703125q0.765625 0.6875 0.765625 1.84375q0 1.390625 -1.78125 3.328125l-2.546875 2.75l4.765625 0l0 0.984375zm1.3590698 1.890625l-0.6875 -0.46875q0.609375 -0.859375 0.640625 -1.765625l0 -1.078125l1.171875 0l0 0.9375q0 0.65625 -0.328125 1.3125q-0.3125 0.65625 -0.796875 1.0625zm6.0093994 -2.515625q0 -0.3125 0.1875 -0.515625q0.1875 -0.21875 0.546875 -0.21875q0.375 0 0.5625 0.21875q0.203125 0.203125 0.203125 0.515625q0 0.296875 -0.203125 0.5q-0.1875 0.203125 -0.5625 0.203125q-0.359375 0 -0.546875 -0.203125q-0.1875 -0.203125 -0.1875 -0.5zm2.84375 0q0 -0.3125 0.1875 -0.515625q0.1875 -0.21875 0.546875 -0.21875q0.375 0 0.5625 0.21875q0.203125 0.203125 0.203125 0.515625q0 0.296875 -0.203125 0.5q-0.1875 0.203125 -0.5625 0.203125q-0.359375 0 -0.546875 -0.203125q-0.1875 -0.203125 -0.1875 -0.5zm2.703125 0q0 -0.3125 0.1875 -0.515625q0.1875 -0.21875 0.546875 -0.21875q0.375 0 0.5625 0.21875q0.203125 0.203125 0.203125 0.515625q0 0.296875 -0.203125 0.5q-0.1875 0.203125 -0.5625 0.203125q-0.359375 0 -0.546875 -0.203125q-0.1875 -0.203125 -0.1875 -0.5zm3.275177 2.515625l-0.6875 -0.46875q0.609375 -0.859375 0.640625 -1.765625l0 -1.078125l1.171875 0l0 0.9375q0 0.65625 -0.328125 1.3125q-0.3125 0.65625 -0.796875 1.0625zm11.368774 -4.359375l-3.96875 0l-0.890625 2.46875l-1.28125 0l3.609375 -9.46875l1.09375 0l3.625 9.46875l-1.28125 0l-0.90625 -2.46875zm-3.59375 -1.03125l3.234375 0l-1.625 -4.4375l-1.609375 4.4375zm8.007019 -3.546875l0.046875 0.890625q0.796875 -1.015625 2.109375 -1.015625q2.234375 0 2.25 2.515625l0 4.65625l-1.203125 0l0 -4.65625q-0.015625 -0.765625 -0.359375 -1.125q-0.328125 -0.375 -1.0625 -0.375q-0.578125 0 -1.03125 0.3125q-0.4375 0.3125 -0.6875 0.828125l0 5.015625l-1.203125 0l0 -7.046875l1.140625 0zm10.478912 2.8125l-4.296875 -1.6875l0 -1.234375l5.5625 2.46875l0 0.953125l-5.5625 2.453125l0 -1.25l4.296875 -1.703125z" fill-rule="nonzero"/><path fill="#000000" fill-opacity="0.0" d="m236.53674 281.81104l68.787415 0l0 35.55905l-68.787415 0z" fill-rule="evenodd"/><path fill="#000000" d="m253.58482 296.92352l-1.1875 3.15625l2.390625 0l-1.203125 -3.15625zm0.765625 -2.375l3.5156097 8.828125l-1.734375 0.234375l-0.81248474 -2.125l-3.4375 0l-0.796875 2.125l-1.734375 0l3.53125 -9.0625l1.46875 0zm5.8484344 3.296875q0.4375 -0.4375 1.09375 -0.6875q0.671875 -0.265625 1.1875 -0.265625q1.3125 0 1.859375 0.78125q0.5625 0.765625 0.5625 1.890625l0 4.046875l-1.734375 0l0 -3.96875q0 -0.609375 -0.296875 -0.9375q-0.28125 -0.328125 -0.84375 -0.328125q-0.375 0 -0.78125 0.203125q-0.40625 0.1875 -0.734375 0.4375l0 4.59375l-1.734375 0l0 -6.46875l0.90625 0l0.515625 0.703125zm9.386536 0.609375q-0.734375 0 -1.15625 0.5625q-0.40625 0.546875 -0.40625 1.375q0 0.828125 0.40625 1.375q0.421875 0.53125 1.15625 0.53125q0.453125 0 0.8125 -0.109375q0.375 -0.125 0.84375 -0.34375l0.484375 1.265625q-0.453125 0.34375 -1.09375 0.5q-0.640625 0.15625 -1.0625 0.15625q-1.578125 0 -2.453125 -0.90625q-0.875 -0.921875 -0.875 -2.46875q0 -1.546875 0.875 -2.484375q0.875 -0.9375 2.453125 -0.9375q0.421875 0 1.046875 0.171875q0.640625 0.171875 1.109375 0.515625l-0.484375 1.234375q-0.46875 -0.21875 -0.84375 -0.328125q-0.359375 -0.109375 -0.8125 -0.109375zm5.2118225 -0.875q0.421875 -0.34375 0.96875 -0.515625q0.5625 -0.171875 1.0 -0.171875q1.328125 0 1.875 0.78125q0.546875 0.765625 0.546875 1.890625l0 4.046875l-1.734375 0l0 -3.96875q0 -0.609375 -0.296875 -0.9375q-0.28125 -0.328125 -0.859375 -0.328125q-0.375 0 -0.78125 0.203125q-0.390625 0.1875 -0.71875 0.4375l0 4.59375l-1.71875 0l0 -9.265625l1.71875 -0.140625l0 3.375zm8.968811 6.1875q-1.53125 -0.015625 -2.390625 -0.921875q-0.859375 -0.921875 -0.859375 -2.484375q0 -1.546875 0.890625 -2.46875q0.90625 -0.921875 2.46875 -0.921875q1.609375 0 2.484375 0.953125q0.890625 0.953125 0.890625 2.5q0 1.546875 -0.953125 2.4375q-0.953125 0.890625 -2.53125 0.90625zm1.703125 -3.34375q0 -0.921875 -0.40625 -1.4375q-0.40625 -0.53125 -1.15625 -0.53125q-0.75 0 -1.1875 0.46875q-0.421875 0.46875 -0.421875 1.421875q0 0.953125 0.359375 1.453125q0.375 0.5 1.140625 0.5q0.734375 0 1.203125 -0.453125q0.46875 -0.453125 0.46875 -1.421875zm6.722931 -3.28125l0.34375 1.390625q-0.4375 0 -1.015625 0.25q-0.578125 0.25 -1.140625 0.75l0 4.078125l-1.734375 0l0 -6.46875l0.90625 0l0.578125 0.953125q0.390625 -0.34375 0.96875 -0.640625q0.578125 -0.3125 1.09375 -0.3125z" fill-rule="nonzero"/><path fill="#000000" fill-opacity="0.0" d="m105.05118 380.8609l78.4252 0l0 35.55905l-78.4252 0z" fill-rule="evenodd"/><path fill="#000000" d="m125.920105 393.5984l0 9.0625l-1.734375 0l-4.1875 -6.0625l0 6.0625l-1.71875 0l0 -9.0625l1.71875 0l4.1875 6.046875l0 -6.046875l1.734375 0zm5.295685 9.21875q-1.671875 0 -2.640625 -0.90625q-0.96875 -0.921875 -0.96875 -2.46875q0 -1.546875 0.875 -2.484375q0.875 -0.9375 2.375 -0.9375q1.515625 0 2.21875 1.015625q0.71875 1.0 0.71875 2.375l0 0.53125l-4.34375 0q0.109375 0.640625 0.578125 1.03125q0.46875 0.375 1.234375 0.375q0.4375 0 0.78125 -0.109375q0.359375 -0.125 0.828125 -0.34375l0.5 1.265625q-0.453125 0.34375 -1.109375 0.5q-0.640625 0.15625 -1.046875 0.15625zm0.953125 -4.03125q-0.140625 -0.65625 -0.484375 -0.96875q-0.34375 -0.3125 -0.875 -0.3125q-0.53125 0 -0.890625 0.328125q-0.359375 0.328125 -0.46875 0.953125l2.71875 0zm6.091919 -1.359375q-0.90625 0 -1.265625 0.640625q-0.34375 0.640625 -0.34375 1.3125q0 0.765625 0.3125 1.375q0.328125 0.59375 1.296875 0.59375q0.3125 0 0.640625 -0.140625q0.34375 -0.140625 0.640625 -0.328125l0 -2.984375q-0.296875 -0.203125 -0.640625 -0.328125q-0.328125 -0.140625 -0.640625 -0.140625zm3.03125 -1.234375l0 6.453125q0 1.171875 -0.796875 1.96875q-0.796875 0.796875 -2.515625 0.796875q-0.40625 0 -1.203125 -0.203125q-0.78125 -0.1875 -1.296875 -0.53125l0.515625 -1.234375q0.609375 0.296875 1.03125 0.421875q0.421875 0.140625 0.921875 0.15625q0.765625 -0.015625 1.171875 -0.390625q0.421875 -0.359375 0.421875 -1.0l0 -0.328125q-0.40625 0.234375 -0.875 0.375q-0.46875 0.140625 -0.875 0.140625q-1.40625 0 -2.171875 -0.984375q-0.75 -0.984375 -0.75 -2.453125q0 -1.46875 0.796875 -2.453125q0.8125 -0.984375 2.21875 -0.984375q0.46875 0 1.0625 0.21875q0.609375 0.203125 1.03125 0.5625l0.40625 -0.53125l0.90625 0zm3.0308533 4.53125q0 0.28125 0.21875 0.5q0.234375 0.21875 0.609375 0.21875q0.359375 0 0.71875 -0.15625q0.359375 -0.15625 0.703125 -0.484375l0 -0.984375l-1.3125 0q-0.453125 0 -0.703125 0.28125q-0.234375 0.28125 -0.234375 0.625zm0.84375 2.09375q-1.1875 0 -1.765625 -0.578125q-0.5625 -0.578125 -0.5625 -1.515625q0 -1.0 0.671875 -1.53125q0.6875 -0.53125 1.78125 -0.53125l1.265625 0q-0.015625 -0.484375 -0.296875 -0.75q-0.265625 -0.28125 -0.75 -0.28125q-0.453125 0 -0.984375 0.125q-0.53125 0.125 -0.890625 0.296875l-0.46875 -1.4375q0.375 -0.25 1.140625 -0.421875q0.765625 -0.171875 1.1875 -0.171875q1.15625 0 1.984375 0.671875q0.828125 0.671875 0.828125 1.71875l0 4.25l-0.890625 0l-0.4375 -0.546875q-0.359375 0.28125 -0.84375 0.5q-0.484375 0.203125 -0.96875 0.203125zm8.736664 -0.296875q-0.21875 0.1875 -0.609375 0.296875q-0.390625 0.109375 -0.703125 0.109375q-1.203125 0 -1.890625 -0.609375q-0.671875 -0.609375 -0.671875 -1.71875l0 -3.0625l-0.875 0l0 -1.328125l0.875 0l0 -1.53125l1.71875 -0.3125l0 1.84375l1.171875 0l0.53125 1.328125l-1.703125 0l0 2.75q0 0.515625 0.234375 0.84375q0.234375 0.3125 0.703125 0.3125q0.171875 0 0.34375 -0.03125q0.171875 -0.046875 0.359375 -0.140625l0.515625 1.25zm1.8174133 -9.1875q0.421875 0 0.703125 0.28125q0.28125 0.28125 0.28125 0.6875q0 0.421875 -0.28125 0.703125q-0.28125 0.265625 -0.703125 0.265625q-0.390625 0 -0.671875 -0.265625q-0.28125 -0.28125 -0.28125 -0.703125q0 -0.40625 0.28125 -0.6875q0.28125 -0.28125 0.671875 -0.28125zm0.875 2.859375l0 6.46875l-1.734375 0l0 -6.46875l1.734375 0zm3.4119873 6.46875l-2.484375 -6.21875l1.78125 -0.25l1.5 3.921875l1.40625 -3.921875l1.828125 0l-2.546875 6.46875l-1.484375 0zm8.273407 0.15625q-1.671875 0 -2.640625 -0.90625q-0.96875 -0.921875 -0.96875 -2.46875q0 -1.546875 0.875 -2.484375q0.875 -0.9375 2.375 -0.9375q1.515625 0 2.21875 1.015625q0.71875 1.0 0.71875 2.375l0 0.53125l-4.34375 0q0.109375 0.640625 0.578125 1.03125q0.46875 0.375 1.234375 0.375q0.4375 0 0.78125 -0.109375q0.359375 -0.125 0.828125 -0.34375l0.5 1.265625q-0.453125 0.34375 -1.109375 0.5q-0.640625 0.15625 -1.046875 0.15625zm0.953125 -4.03125q-0.140625 -0.65625 -0.484375 -0.96875q-0.34375 -0.3125 -0.875 -0.3125q-0.53125 0 -0.890625 0.328125q-0.359375 0.328125 -0.46875 0.953125l2.71875 0z" fill-rule="nonzero"/><path fill="#000000" fill-opacity="0.0" d="m91.99606 318.04462l113.98425 0l0 35.55905l-113.98425 0z" fill-rule="evenodd"/><path fill="#000000" d="m102.71481 335.6571l4.078125 1.640625l0 1.28125l-5.328125 -2.46875l0 -0.953125l5.328125 -2.453125l0 1.265625l-4.078125 1.6875zm13.430954 4.1875l-1.25 0l-4.765625 -7.296875l0 7.296875l-1.265625 0l0 -9.46875l1.265625 0l4.78125 7.328125l0 -7.328125l1.234375 0l0 9.46875zm5.8764954 0l-1.21875 0l0 -8.03125l-2.421875 0.90625l0 -1.09375l3.453125 -1.296875l0.1875 0l0 9.515625zm3.6090546 1.890625l-0.6875 -0.46875q0.609375 -0.859375 0.640625 -1.765625l0 -1.078125l1.171875 0l0 0.9375q0 0.65625 -0.328125 1.3125q-0.3125 0.65625 -0.796875 1.0625zm13.415665 -1.890625l-1.25 0l-4.765625 -7.296875l0 7.296875l-1.265625 0l0 -9.46875l1.265625 0l4.78125 7.328125l0 -7.328125l1.234375 0l0 9.46875zm8.126495 0l-6.21875 0l0 -0.859375l3.28125 -3.65625q0.734375 -0.828125 1.0 -1.34375q0.28125 -0.515625 0.28125 -1.0625q0 -0.75 -0.453125 -1.21875q-0.4375 -0.46875 -1.1875 -0.46875q-0.890625 0 -1.390625 0.515625q-0.5 0.5 -0.5 1.40625l-1.203125 0q0 -1.296875 0.84375 -2.109375q0.84375 -0.8125 2.25 -0.8125q1.328125 0 2.09375 0.703125q0.765625 0.6875 0.765625 1.84375q0 1.390625 -1.78125 3.328125l-2.546875 2.75l4.765625 0l0 0.984375zm1.3590546 1.890625l-0.6875 -0.46875q0.609375 -0.859375 0.640625 -1.765625l0 -1.078125l1.171875 0l0 0.9375q0 0.65625 -0.328125 1.3125q-0.3125 0.65625 -0.796875 1.0625zm6.0094147 -2.515625q0 -0.3125 0.1875 -0.515625q0.1875 -0.21875 0.546875 -0.21875q0.375 0 0.5625 0.21875q0.203125 0.203125 0.203125 0.515625q0 0.296875 -0.203125 0.5q-0.1875 0.203125 -0.5625 0.203125q-0.359375 0 -0.546875 -0.203125q-0.1875 -0.203125 -0.1875 -0.5zm2.84375 0q0 -0.3125 0.1875 -0.515625q0.1875 -0.21875 0.546875 -0.21875q0.375 0 0.5625 0.21875q0.203125 0.203125 0.203125 0.515625q0 0.296875 -0.203125 0.5q-0.1875 0.203125 -0.5625 0.203125q-0.359375 0 -0.546875 -0.203125q-0.1875 -0.203125 -0.1875 -0.5zm2.703125 0q0 -0.3125 0.1875 -0.515625q0.1875 -0.21875 0.546875 -0.21875q0.375 0 0.5625 0.21875q0.203125 0.203125 0.203125 0.515625q0 0.296875 -0.203125 0.5q-0.1875 0.203125 -0.5625 0.203125q-0.359375 0 -0.546875 -0.203125q-0.1875 -0.203125 -0.1875 -0.5zm3.2751617 2.515625l-0.6875 -0.46875q0.609375 -0.859375 0.640625 -1.765625l0 -1.078125l1.171875 0l0 0.9375q0 0.65625 -0.328125 1.3125q-0.3125 0.65625 -0.796875 1.0625zm13.415665 -1.890625l-1.25 0l-4.765625 -7.296875l0 7.296875l-1.265625 0l0 -9.46875l1.265625 0l4.78125 7.328125l0 -7.328125l1.234375 0l0 9.46875zm3.1733704 -7.046875l0.046875 0.890625q0.796875 -1.015625 2.109375 -1.015625q2.234375 0 2.25 2.515625l0 4.65625l-1.203125 0l0 -4.65625q-0.015625 -0.765625 -0.359375 -1.125q-0.328125 -0.375 -1.0625 -0.375q-0.578125 0 -1.03125 0.3125q-0.4375 0.3125 -0.6875 0.828125l0 5.015625l-1.203125 0l0 -7.046875l1.140625 0zm10.478897 2.8125l-4.296875 -1.6875l0 -1.234375l5.5625 2.46875l0 0.953125l-5.5625 2.453125l0 -1.25l4.296875 -1.703125z" fill-rule="nonzero"/><path fill="#000000" fill-opacity="0.0" d="m793.90027 226.80052l122.99213 0l0 35.559067l-122.99213 0z" fill-rule="evenodd"/><path fill="#000000" d="m804.619 244.41302l4.078125 1.640625l0 1.28125l-5.328125 -2.46875l0 -0.953125l5.328125 -2.453125l0 1.265625l-4.078125 1.6875zm11.384094 1.71875l-3.96875 0l-0.890625 2.46875l-1.28125 0l3.609375 -9.46875l1.09375 0l3.625 9.46875l-1.28125 0l-0.90625 -2.46875zm-3.59375 -1.03125l3.234375 0l-1.625 -4.4375l-1.609375 4.4375zm10.710144 3.5l-1.21875 0l0 -8.03125l-2.421875 0.90625l0 -1.09375l3.453125 -1.296875l0.1875 0l0 9.515625zm3.7340088 -6.8125l-0.6875 -0.46875q0.609375 -0.84375 0.625 -1.78125l0 -0.9375l1.1875 0l0 0.84375q0 0.65625 -0.328125 1.3125q-0.3125 0.640625 -0.796875 1.03125zm2.5367432 8.703125l-0.6875 -0.46875q0.609375 -0.859375 0.640625 -1.765625l0 -1.078125l1.171875 0l0 0.9375q0 0.65625 -0.328125 1.3125q-0.3125 0.65625 -0.796875 1.0625zm11.368774 -4.359375l-3.96875 0l-0.890625 2.46875l-1.28125 0l3.609375 -9.46875l1.09375 0l3.625 9.46875l-1.28125 0l-0.90625 -2.46875zm-3.59375 -1.03125l3.234375 0l-1.625 -4.4375l-1.609375 4.4375zm12.960144 3.5l-6.21875 0l0 -0.859375l3.28125 -3.65625q0.734375 -0.828125 1.0 -1.34375q0.28125 -0.515625 0.28125 -1.0625q0 -0.75 -0.453125 -1.21875q-0.4375 -0.46875 -1.1875 -0.46875q-0.890625 0 -1.390625 0.515625q-0.5 0.5 -0.5 1.40625l-1.203125 0q0 -1.296875 0.84375 -2.109375q0.84375 -0.8125 2.25 -0.8125q1.328125 0 2.09375 0.703125q0.765625 0.6875 0.765625 1.84375q0 1.390625 -1.78125 3.328125l-2.546875 2.75l4.765625 0l0 0.984375zm1.4840698 -6.8125l-0.6875 -0.46875q0.609375 -0.84375 0.625 -1.78125l0 -0.9375l1.1875 0l0 0.84375q0 0.65625 -0.328125 1.3125q-0.3125 0.640625 -0.796875 1.03125zm2.5367432 8.703125l-0.6875 -0.46875q0.609375 -0.859375 0.640625 -1.765625l0 -1.078125l1.171875 0l0 0.9375q0 0.65625 -0.328125 1.3125q-0.3125 0.65625 -0.796875 1.0625zm6.0093994 -2.515625q0 -0.3125 0.1875 -0.515625q0.1875 -0.21875 0.546875 -0.21875q0.375 0 0.5625 0.21875q0.203125 0.203125 0.203125 0.515625q0 0.296875 -0.203125 0.5q-0.1875 0.203125 -0.5625 0.203125q-0.359375 0 -0.546875 -0.203125q-0.1875 -0.203125 -0.1875 -0.5zm2.84375 0q0 -0.3125 0.1875 -0.515625q0.1875 -0.21875 0.546875 -0.21875q0.375 0 0.5625 0.21875q0.203125 0.203125 0.203125 0.515625q0 0.296875 -0.203125 0.5q-0.1875 0.203125 -0.5625 0.203125q-0.359375 0 -0.546875 -0.203125q-0.1875 -0.203125 -0.1875 -0.5zm2.703125 0q0 -0.3125 0.1875 -0.515625q0.1875 -0.21875 0.546875 -0.21875q0.375 0 0.5625 0.21875q0.203125 0.203125 0.203125 0.515625q0 0.296875 -0.203125 0.5q-0.1875 0.203125 -0.5625 0.203125q-0.359375 0 -0.546875 -0.203125q-0.1875 -0.203125 -0.1875 -0.5zm3.2751465 2.515625l-0.6875 -0.46875q0.609375 -0.859375 0.640625 -1.765625l0 -1.078125l1.171875 0l0 0.9375q0 0.65625 -0.328125 1.3125q-0.3125 0.65625 -0.796875 1.0625zm11.368835 -4.359375l-3.96875 0l-0.890625 2.46875l-1.28125 0l3.609375 -9.46875l1.09375 0l3.625 9.46875l-1.28125 0l-0.90625 -2.46875zm-3.59375 -1.03125l3.234375 0l-1.625 -4.4375l-1.609375 4.4375zm8.007019 -3.546875l0.03125 0.78125q0.765625 -0.90625 2.09375 -0.90625q1.46875 0 2.0 1.125q0.359375 -0.5 0.921875 -0.8125q0.5625 -0.3125 1.328125 -0.3125q2.3125 0 2.359375 2.453125l0 4.71875l-1.203125 0l0 -4.640625q0 -0.765625 -0.34375 -1.140625q-0.34375 -0.375 -1.171875 -0.375q-0.65625 0 -1.109375 0.40625q-0.4375 0.40625 -0.515625 1.078125l0 4.671875l-1.203125 0l0 -4.609375q0 -1.546875 -1.5 -1.546875q-1.1875 0 -1.625 1.015625l0 5.140625l-1.203125 0l0 -7.046875l1.140625 0zm10.113892 0.234375l-0.6875 -0.46875q0.609375 -0.84375 0.625 -1.78125l0 -0.9375l1.1875 0l0 0.84375q0 0.65625 -0.328125 1.3125q-0.3125 0.640625 -0.796875 1.03125zm6.833618 2.578125l-4.296875 -1.6875l0 -1.234375l5.5625 2.46875l0 0.953125l-5.5625 2.453125l0 -1.25l4.296875 -1.703125z" fill-rule="nonzero"/><path fill="#000000" fill-opacity="0.0" d="m666.20734 391.69946l122.99213 0l0 35.559082l-122.99213 0z" fill-rule="evenodd"/><path fill="#000000" d="m676.9261 409.31198l4.078125 1.640625l0 1.28125l-5.328125 -2.46875l0 -0.953125l5.328125 -2.453125l0 1.265625l-4.078125 1.6875zm13.430969 4.1875l-1.25 0l-4.765625 -7.296875l0 7.296875l-1.265625 0l0 -9.46875l1.265625 0l4.78125 7.328125l0 -7.328125l1.234375 0l0 9.46875zm5.876465 0l-1.21875 0l0 -8.03125l-2.421875 0.90625l0 -1.09375l3.453125 -1.296875l0.1875 0l0 9.515625zm3.7340698 -6.8125l-0.6875 -0.46875q0.609375 -0.84375 0.625 -1.78125l0 -0.9375l1.1875 0l0 0.84375q0 0.65625 -0.328125 1.3125q-0.3125 0.640625 -0.796875 1.03125zm2.5367432 8.703125l-0.6875 -0.46875q0.609375 -0.859375 0.640625 -1.765625l0 -1.078125l1.171875 0l0 0.9375q0 0.65625 -0.328125 1.3125q-0.3125 0.65625 -0.796875 1.0625zm13.415649 -1.890625l-1.25 0l-4.765625 -7.296875l0 7.296875l-1.265625 0l0 -9.46875l1.265625 0l4.78125 7.328125l0 -7.328125l1.234375 0l0 9.46875zm8.126526 0l-6.21875 0l0 -0.859375l3.28125 -3.65625q0.734375 -0.828125 1.0 -1.34375q0.28125 -0.515625 0.28125 -1.0625q0 -0.75 -0.453125 -1.21875q-0.4375 -0.46875 -1.1875 -0.46875q-0.890625 0 -1.390625 0.515625q-0.5 0.5 -0.5 1.40625l-1.203125 0q0 -1.296875 0.84375 -2.109375q0.84375 -0.8125 2.25 -0.8125q1.328125 0 2.09375 0.703125q0.765625 0.6875 0.765625 1.84375q0 1.390625 -1.78125 3.328125l-2.546875 2.75l4.765625 0l0 0.984375zm1.4840088 -6.8125l-0.6875 -0.46875q0.609375 -0.84375 0.625 -1.78125l0 -0.9375l1.1875 0l0 0.84375q0 0.65625 -0.328125 1.3125q-0.3125 0.640625 -0.796875 1.03125zm2.5367432 8.703125l-0.6875 -0.46875q0.609375 -0.859375 0.640625 -1.765625l0 -1.078125l1.171875 0l0 0.9375q0 0.65625 -0.328125 1.3125q-0.3125 0.65625 -0.796875 1.0625zm6.0093994 -2.515625q0 -0.3125 0.1875 -0.515625q0.1875 -0.21875 0.546875 -0.21875q0.375 0 0.5625 0.21875q0.203125 0.203125 0.203125 0.515625q0 0.296875 -0.203125 0.5q-0.1875 0.203125 -0.5625 0.203125q-0.359375 0 -0.546875 -0.203125q-0.1875 -0.203125 -0.1875 -0.5zm2.84375 0q0 -0.3125 0.1875 -0.515625q0.1875 -0.21875 0.546875 -0.21875q0.375 0 0.5625 0.21875q0.203125 0.203125 0.203125 0.515625q0 0.296875 -0.203125 0.5q-0.1875 0.203125 -0.5625 0.203125q-0.359375 0 -0.546875 -0.203125q-0.1875 -0.203125 -0.1875 -0.5zm2.703125 0q0 -0.3125 0.1875 -0.515625q0.1875 -0.21875 0.546875 -0.21875q0.375 0 0.5625 0.21875q0.203125 0.203125 0.203125 0.515625q0 0.296875 -0.203125 0.5q-0.1875 0.203125 -0.5625 0.203125q-0.359375 0 -0.546875 -0.203125q-0.1875 -0.203125 -0.1875 -0.5zm3.2752075 2.515625l-0.6875 -0.46875q0.609375 -0.859375 0.640625 -1.765625l0 -1.078125l1.171875 0l0 0.9375q0 0.65625 -0.328125 1.3125q-0.3125 0.65625 -0.796875 1.0625zm13.415649 -1.890625l-1.25 0l-4.765625 -7.296875l0 7.296875l-1.265625 0l0 -9.46875l1.265625 0l4.78125 7.328125l0 -7.328125l1.234375 0l0 9.46875zm3.1733398 -7.046875l0.03125 0.78125q0.765625 -0.90625 2.09375 -0.90625q1.46875 0 2.0 1.125q0.359375 -0.5 0.921875 -0.8125q0.5625 -0.3125 1.328125 -0.3125q2.3125 0 2.359375 2.453125l0 4.71875l-1.203125 0l0 -4.640625q0 -0.765625 -0.34375 -1.140625q-0.34375 -0.375 -1.171875 -0.375q-0.65625 0 -1.109375 0.40625q-0.4375 0.40625 -0.515625 1.078125l0 4.671875l-1.203125 0l0 -4.609375q0 -1.546875 -1.5 -1.546875q-1.1875 0 -1.625 1.015625l0 5.140625l-1.203125 0l0 -7.046875l1.140625 0zm10.113953 0.234375l-0.6875 -0.46875q0.609375 -0.84375 0.625 -1.78125l0 -0.9375l1.1875 0l0 0.84375q0 0.65625 -0.328125 1.3125q-0.3125 0.640625 -0.796875 1.03125zm6.833618 2.578125l-4.296875 -1.6875l0 -1.234375l5.5625 2.46875l0 0.953125l-5.5625 2.453125l0 -1.25l4.296875 -1.703125z" fill-rule="nonzero"/><path fill="#000000" fill-opacity="0.0" d="m160.70735 175.65617c71.13141 0 144.08858 8.704849 210.69041 33.176727c22.688263 8.336487 48.316223 14.19014 65.464935 30.96312" fill-rule="evenodd"/><path stroke="#4f4f4f" stroke-width="1.0" stroke-linejoin="round" stroke-linecap="butt" d="m160.70735 175.65617c71.13141 0 144.08858 8.704849 210.69041 33.176727c11.344116 4.1682434 23.423187 7.7157745 34.809784 12.317871c5.693329 2.3010406 11.213501 4.865738 16.382172 7.903488c2.58432 1.5188599 5.0808105 3.1559753 7.467041 4.937561c1.1931458 0.89079285 2.3587036 1.8176575 3.4939575 2.7839508c0.14190674 0.120773315 0.2833557 0.2421875 0.4243164 0.36419678l0.37399292 0.3265686" fill-rule="evenodd"/><path fill="#4f4f4f" stroke="#4f4f4f" stroke-width="1.0" stroke-linecap="butt" d="m434.34906 237.46654l-1.5892639 0.060424805l3.0306396 1.2753601l-1.501831 -2.9250488z" fill-rule="evenodd"/><path fill="#000000" fill-opacity="0.0" d="m282.24802 269.5013c45.931854 0 91.758484 -5.383209 137.6903 -5.383209" fill-rule="evenodd"/><path stroke="#4f4f4f" stroke-width="1.0" stroke-linejoin="round" stroke-linecap="butt" d="m282.24802 269.5013c22.965942 0 45.905518 -1.3457947 68.84515 -2.6915894c11.469818 -0.6729126 22.939606 -1.3458252 34.41269 -1.8504944c5.7365417 -0.25231934 11.473907 -0.46261597 17.212524 -0.60983276c2.8693237 -0.07357788 5.738922 -0.13140869 8.608887 -0.1708374c1.4349976 -0.019714355 2.8700867 -0.034820557 4.305237 -0.045013428l0.87872314 -0.004699707" fill-rule="evenodd"/><path fill="#4f4f4f" stroke="#4f4f4f" stroke-width="1.0" stroke-linecap="butt" d="m416.51126 264.12885l-1.1210632 1.1280823l3.0862122 -1.1342468l-3.0932617 -1.1148987z" fill-rule="evenodd"/><path fill="#000000" fill-opacity="0.0" d="m155.32414 370.27298c59.890427 0 121.42024 -11.069733 176.15224 -35.385834c33.036377 -14.677277 56.1597 -56.92389 92.30972 -56.92389" fill-rule="evenodd"/><path stroke="#4f4f4f" stroke-width="1.0" stroke-linejoin="round" stroke-linecap="butt" d="m155.32414 370.27298c59.890427 0 121.42027 -11.069733 176.15224 -35.385834c16.518219 -7.338623 30.558105 -21.56961 44.987244 -33.965942c7.214569 -6.1981506 14.526398 -11.937622 22.294037 -16.127594c3.883789 -2.0949707 7.881531 -3.8025513 12.037994 -4.986389c2.078247 -0.59194946 4.1961365 -1.052948 6.359375 -1.3659363c0.540802 -0.07824707 1.0844421 -0.14724731 1.6309814 -0.20675659c0.2732544 -0.029724121 0.5472717 -0.05709839 0.8220215 -0.08206177l0.75335693 -0.061584473" fill-rule="evenodd"/><path fill="#4f4f4f" stroke="#4f4f4f" stroke-width="1.0" stroke-linecap="butt" d="m420.3614 278.09088l-1.0819397 1.1656799l3.0457458 -1.2388611l-3.129486 -1.0087585z" fill-rule="evenodd"/><path fill="#000000" fill-opacity="0.0" d="m540.7086 261.80927c55.511414 0 108.23767 -6.7329407 162.99457 -9.186295c23.172241 -1.0382233 44.032043 -5.427994 67.52356 -5.427994" fill-rule="evenodd"/><path stroke="#4f4f4f" stroke-width="1.0" stroke-linejoin="round" stroke-linecap="butt" d="m540.7086 261.80927c55.511414 0 108.23767 -6.7329407 162.99457 -9.186295c11.586121 -0.519104 22.594116 -1.8761139 33.64203 -3.1033325c5.523987 -0.61361694 11.057922 -1.1947937 16.679077 -1.6225586c2.810608 -0.21386719 5.6429443 -0.3894043 8.506775 -0.51145935c1.4319458 -0.061035156 2.8717651 -0.10870361 4.3206177 -0.14109802l0.9481201 -0.018661499" fill-rule="evenodd"/><path fill="#4f4f4f" stroke="#4f4f4f" stroke-width="1.0" stroke-linecap="butt" d="m767.79974 247.22586l-1.1143799 1.1346741l3.0795288 -1.1523895l-3.0997925 -1.0966797z" fill-rule="evenodd"/><path fill="#000000" fill-opacity="0.0" d="m535.19684 239.79819c33.59851 -17.108185 69.11029 -31.423767 104.642395 -45.433945c15.533997 -6.1249847 29.29126 -18.707947 46.417908 -18.707947" fill-rule="evenodd"/><path stroke="#4f4f4f" stroke-width="1.0" stroke-linejoin="round" stroke-linecap="butt" d="m535.19684 239.79819c33.59851 -17.108185 69.11029 -31.423767 104.642395 -45.43393c7.766968 -3.0625 15.089844 -7.739502 22.611694 -11.650864c3.7609863 -1.9556885 7.5717163 -3.7199554 11.512634 -4.9953156c1.970398 -0.63768005 3.9733887 -1.153122 6.018982 -1.5091553c0.5114136 -0.08900452 1.0255127 -0.16802979 1.5423584 -0.23654175c0.25842285 -0.034240723 0.5175781 -0.06587219 0.7774658 -0.09477234c0.12994385 -0.014434814 0.2600708 -0.028213501 0.39031982 -0.041305542l0.14147949 -0.013442993" fill-rule="evenodd"/><path fill="#4f4f4f" stroke="#4f4f4f" stroke-width="1.0" stroke-linecap="butt" d="m682.83417 175.82286l-1.0686035 1.1779022l3.031433 -1.2734222l-3.140747 -0.9730835z" fill-rule="evenodd"/><path fill="#000000" fill-opacity="0.0" d="m539.1693 277.1942c23.260376 17.43042 38.38623 43.657593 57.69287 65.38583c13.171387 14.823395 32.191284 26.571106 38.461975 45.38321" fill-rule="evenodd"/><path stroke="#4f4f4f" stroke-width="1.0" stroke-linejoin="round" stroke-linecap="butt" d="m539.1693 277.1942c23.260376 17.43042 38.38623 43.657593 57.69287 65.38583c6.5856934 7.4117126 14.633484 14.054474 21.818726 21.195831c3.5926514 3.5707092 6.9696045 7.265991 9.840332 11.244415c1.4353638 1.9892273 2.7442017 4.049164 3.8900757 6.199768c0.57299805 1.0752563 1.1052246 2.1731873 1.5922241 3.2962341l0.103881836 0.24313354" fill-rule="evenodd"/><path fill="#4f4f4f" stroke="#4f4f4f" stroke-width="1.0" stroke-linecap="butt" d="m634.1074 384.75943l-1.4505615 -0.6520691l2.1482544 2.4892273l-0.04559326 -3.2877502z" fill-rule="evenodd"/></g></svg>